inDegrees=no
num_controls=7
num_derivatives=13
num_iterations=101
num_multipliers=7
num_parameters=0
num_slacks=7
num_states=26
objective=0.450987
objective_accelerations=0.049459
objective_balance=0.001065
objective_effort=0.038383
objective_height=0.356533
objective_ligament=0.005547
solver_duration=1200.048923
status=Solve_Succeeded
success=true
DataType=double
version=3
OpenSimVersion=4.5
endheader
time	/jointset/ground_pelvis/pelvis_tilt/value	/jointset/ground_pelvis/pelvis_tx/value	/jointset/ground_pelvis/pelvis_ty/value	/jointset/hip_r/hip_flexion_r/value	/jointset/hip_r/hip_adduction_r/value	/jointset/hip_r/hip_rotation_r/value	/jointset/back/lumbar_extension/value	/jointset/patellofemoral_r/patellar_flexion_r/value	/jointset/knee_r/knee_flexion_r/value	/jointset/knee_r/knee_adduction_r/value	/jointset/knee_r/knee_rotation_r/value	/jointset/ankle_r/ankle_angle_r/value	/jointset/subtalar_r/subtalar_angle_r/value	/jointset/ground_pelvis/pelvis_tilt/speed	/jointset/ground_pelvis/pelvis_tx/speed	/jointset/ground_pelvis/pelvis_ty/speed	/jointset/hip_r/hip_flexion_r/speed	/jointset/hip_r/hip_adduction_r/speed	/jointset/hip_r/hip_rotation_r/speed	/jointset/back/lumbar_extension/speed	/jointset/patellofemoral_r/patellar_flexion_r/speed	/jointset/knee_r/knee_flexion_r/speed	/jointset/knee_r/knee_adduction_r/speed	/jointset/knee_r/knee_rotation_r/speed	/jointset/ankle_r/ankle_angle_r/speed	/jointset/subtalar_r/subtalar_angle_r/speed	/forceset/tau_hip_flexion_r	/forceset/tau_hip_adduction_r	/forceset/tau_hip_rotation_r	/forceset/tau_knee_flexion_r	/forceset/tau_ankle_angle_r	/forceset/tau_subtalar_angle_r	/forceset/tau_lumbar_extension	lambda_cid13_p0	lambda_cid14_p0	lambda_cid14_p1	lambda_cid14_p2	lambda_cid14_p3	lambda_cid14_p4	lambda_cid14_p5	/jointset/ground_pelvis/pelvis_tilt/accel	/jointset/ground_pelvis/pelvis_tx/accel	/jointset/ground_pelvis/pelvis_ty/accel	/jointset/hip_r/hip_flexion_r/accel	/jointset/hip_r/hip_adduction_r/accel	/jointset/hip_r/hip_rotation_r/accel	/jointset/back/lumbar_extension/accel	/jointset/patellofemoral_r/patellar_flexion_r/accel	/jointset/knee_r/knee_flexion_r/accel	/jointset/knee_r/knee_adduction_r/accel	/jointset/knee_r/knee_rotation_r/accel	/jointset/ankle_r/ankle_angle_r/accel	/jointset/subtalar_r/subtalar_angle_r/accel	gamma_cid13_p0	gamma_cid14_p0	gamma_cid14_p1	gamma_cid14_p2	gamma_cid14_p3	gamma_cid14_p4	gamma_cid14_p5
1	-0.2290435237696593	-0.01723192059978109	0.6223708305648501	1.458929790205032	-0.2397086025823693	-0.07839843194756789	-0.7853952430075826	1.54631067629696	1.546310676296958	-0.1745195902151623	0.174505887508368	0.4362657154055142	0.1729292854252209	0.06772172861619399	0.004476510929739694	0.01655215422825534	-0.1009850806092293	-0.0006228954779928092	-0.002445923779336864	-0.0002903550925918071	-0.02169809780280332	-0.02169809780280325	0.004456178771943688	-0.0004438732130083045	0.01134943744544032	0.004674974925724475	-0.332338394041071	0.02850960414614213	0.009492045248707812	-0.4792446914607567	-0.005002139651546843	0.003741622854241045	0.358320851444275	-0.04059347085259795	-53.77591357745803	-11.9914957991406	7.131926842068063	7.081779085352642	-773.8015419533996	68.45284074276742	1.242388762801327	0.1484310204840518	1.908214384034741	-5.638127670744144	0.2565874519149684	-0.7264433012528482	-0.03488280730012426	-5.195170510307118	-5.195170510307161	0.5927627162100825	-0.02756229885749145	-0.9459785210419452	0.01955903338358087	7.041217247026438e-11	1.098061642632367e-10	4.19215214973332e-09	-2.181523771647772e-10	-9.321906880202766e-10	-3.771952883547185e-09	3.240730810920686e-09
1.01	-0.2283052599687928	-0.01717965177552746	0.6226315187830651	1.457639431248364	-0.2397020541263508	-0.07845618854368762	-0.7853978916898652	1.545834595461383	1.545834595461383	-0.1744424035500103	0.1744997521512587	0.4363319781890892	0.1729768730168726	0.07988619582399598	0.005988603545090996	0.03557304109764704	-0.1570313616470282	0.001926494362866007	-0.009052360811305706	-0.0001108047991797568	-0.07349316863777693	-0.07349316863777705	0.01103635560529253	-0.0007803098601246869	0.001912458281405726	0.004834155849938536	-0.3324261517882622	0.02850526819028635	0.009557242619772824	-0.4791844921637679	-0.004988869170288988	0.003744095822608884	0.3586860077034072	-0.04059315100064924	-53.77127520339666	-11.98884474227059	7.130630669250842	6.93259927081353	-773.8852844689924	68.45902521883325	1.196752021655634	0.1542993198887874	1.897156577263722	-5.579574374109972	0.2532062773877032	-0.6197860321229165	0.06366043237469544	-5.167941439262269	-5.16794143926227	0.6989247453364533	-0.03623937158316196	-0.9411565483654604	0.01285036670809913	5.794164453978189e-09	9.716451922003329e-09	3.757621550091943e-08	4.212245418977494e-08	-7.462972319214888e-09	-1.000487484844694e-08	8.10972483804646e-08
1.02	-0.2274466962314711	-0.0171119218375547	0.6230820420177483	1.455790270270554	-0.2396701934664804	-0.07857841793571793	-0.7853948875722714	1.544841310703622	1.544841310703624	-0.1742977592008371	0.1744903414228894	0.4363041513941674	0.17302580296672	0.09178171590723802	0.007568733673566272	0.05451915752193274	-0.2127454848373156	0.00443954529237943	-0.01534048296144954	0.0008402048826825774	-0.1251388822395423	-0.1251388822395424	0.0179477155762021	-0.001098947465018357	-0.007468478253898806	0.004943446564863814	-0.3325139095354535	0.02850093223443056	0.009622439990837792	-0.4791242928667792	-0.004975598689031129	0.003746568790976735	0.3590511639625394	-0.04060022889454647	-53.77402915708042	-11.98395541948049	7.124942197627614	6.785407800626317	-774.0869282494514	68.49532273643942	1.188599337889336	0.1620385231088469	1.89326029501354	-5.571696101241816	0.2493196696458897	-0.6627803248878469	0.1194090703899324	-5.165299063665461	-5.165299063665461	0.6589993437216245	-0.0240024904128764	-0.9347699952979454	0.009580991525824315	1.326652364216989e-08	2.032538874236394e-08	7.615634466152907e-08	9.51272522748391e-08	-1.245335149924544e-08	-1.883442179698937e-08	1.762966559637622e-07
1.03	-0.2264707001338373	-0.01702804607036534	0.6237216302308849	1.45338583686386	-0.2396133379055461	-0.07876248964224727	-0.7853777888139629	1.543332122089898	1.543332122089899	-0.1740829124268057	0.1744778389533717	0.4361826153506048	0.1730755821524344	0.1033525706724172	0.009218267156549822	0.0733836125811432	-0.2680628328344288	0.006930671675567771	-0.0214746052626095	0.002783725680532444	-0.1766933089880031	-0.1766933089880024	0.02502083585842703	-0.001399691301097642	-0.01684734505834802	0.005005705234932054	-0.3331226567727423	0.02860589891083935	0.009712496803470033	-0.4785155644633132	-0.005747430917632653	0.003799920418094637	0.3599266149731448	-0.04061969288164601	-54.03754349114557	-11.98525269360035	7.100395057822113	6.841917964041903	-774.4509782901225	68.48706790856826	1.131594700413927	0.1681843539779292	1.880801640971447	-5.499993812306956	0.2488936879700003	-0.5888286565911862	0.2624504197109053	-5.149688949585616	-5.149688949585661	0.7313434599175487	-0.03279170571227381	-0.9407364289232415	0.003581127589431424	2.075672575798082e-08	3.094455302254722e-08	1.147894949018267e-07	1.482408686407005e-07	-1.742801228691717e-08	-2.769046491883429e-08	2.716730318125064e-07
1.04	-0.2253809422576354	-0.01692732024972917	0.624549415700533	1.450430582044522	-0.2395315941677169	-0.07900792266656045	-0.7853351294806302	1.541307554314859	1.541307554314859	-0.1737973594320632	0.1744623927703919	0.4359670323578168	0.173125790489418	0.114534071620865	0.01093874436292614	0.0921586088242197	-0.3229097673659772	0.009417180671345579	-0.02761274651822223	0.005952319887518036	-0.2282147145024327	-0.2282147145024317	0.03208895971843684	-0.001687690157449701	-0.02627786809897975	0.005029276818684595	-0.3337314040100312	0.02871086558724812	0.009802553616102274	-0.4779068360598421	-0.006519263146234173	0.003853272045212526	0.3608020659837561	-0.04064658914758058	-54.30850027801732	-11.98415164817156	7.071237259817545	6.899252869970557	-774.9349657947934	68.50969050612782	1.110728574543052	0.1762272677874016	1.875368531786745	-5.477613408128821	0.2483961921637831	-0.6635841157783996	0.364423752217078	-5.15869481685919	-5.158694816858692	0.6580000592786023	-0.02145349446743133	-0.9451012425333659	0.001843574262684323	2.495714549374957e-08	3.712602527002214e-08	1.414126012366086e-07	1.786439562831726e-07	-2.054317455034069e-08	-3.424015133915726e-08	3.291623347077011e-07
1.05	-0.2241810417525847	-0.01680900656744271	0.6255645015628024	1.44692896760296	-0.2394251544309519	-0.07931413422793954	-0.7852550906476814	1.538767968462423	1.538767968462422	-0.1734403017686566	0.1744443952298654	0.4356567843677797	0.1731756960284287	0.1254054813394664	0.0127386225663095	0.1108431695509869	-0.3773559909902852	0.01185704843172189	-0.03356701848534237	0.01022020714089835	-0.2796940334564633	-0.2796940334564622	0.03940525807928554	-0.001888061583899602	-0.03579036699092083	0.004914123248356499	-0.3339508170247929	0.02877568082703339	0.009978435499075681	-0.4772229864761406	-0.006994288952489731	0.003872630408287931	0.3613672543051165	-0.0406815833524354	-54.46540264737472	-11.98170630308455	7.046277450826968	6.886542083400518	-775.1027630132593	68.51112725681713	1.069273647782215	0.1840579164807535	1.862682522339625	-5.419549139826301	0.2397508167464809	-0.5519511367658313	0.482685277691409	-5.141292907758424	-5.141292907758722	0.7808423304330903	-0.0157086972590433	-0.9571189699162527	-0.02380005041647458	2.905475953014203e-08	4.316881964147493e-08	1.676603936993431e-07	2.083373399030389e-07	-2.360022748488146e-08	-4.071776411255769e-08	3.854676665730976e-07
1.06	-0.2228736418548952	-0.01667225613914903	0.6267659695681829	1.442884606465105	-0.2392947222668288	-0.07967800898890719	-0.7851274301290398	1.53571384092583	1.535713840925828	-0.1730076016004526	0.1744251180289693	0.435250852437345	0.1732233289861892	0.1360339501486093	0.01462609356437081	0.129435037446471	-0.4314591066243738	0.01421566614297523	-0.03914538643594252	0.01547665702601773	-0.3311230513338315	-0.3311230513338329	0.04721746067793788	-0.001943622231360438	-0.04541465617853305	0.004574760568591687	-0.3341702300395545	0.0288404960668187	0.01015431738204909	-0.476539136892439	-0.007469314758745282	0.003891988771363415	0.361932442626477	-0.04072409079909046	-54.62981140998168	-11.97658441997528	7.016332055567329	6.87410221608519	-775.3929926250444	68.54473420111597	1.062140392651359	0.1937458267229943	1.856829965530126	-5.408991810084932	0.2321461823391897	-0.5884033124744034	0.5621362785648938	-5.148634601526725	-5.148634601526725	0.757180906839341	0.007508661330383283	-0.9674593016676094	-0.04299824762465845	3.528562660273383e-08	5.207976746917138e-08	1.971477718379888e-07	2.53484547746823e-07	-2.813498673747727e-08	-4.72179571441912e-08	4.608128767607089e-07
1.07	-0.221460839664485	-0.01651614828979097	0.6281528390158793	1.438300724166458	-0.2391411216175076	-0.08009589367216982	-0.7849425868658639	1.532145836998227	1.532145836998226	-0.1724944497867193	0.1744059849702668	0.4347481646295563	0.1732664515981929	0.1465171401936446	0.01661457552553188	0.1479179659188577	-0.4852792466825627	0.01649212581828713	-0.04437774634603269	0.02162686242033772	-0.3824534423196643	-0.3824534423196648	0.05547902135273678	-0.001867439557736822	-0.05513625657921817	0.004017642018903178	-0.3340964213375404	0.02888167935909227	0.01037979429848903	-0.4755222813586487	-0.00783276251578678	0.003904357397451292	0.3622493260491966	-0.04076898621711303	-54.72765989108288	-11.95997798501569	6.98128243507045	6.799244168745948	-775.242097117919	68.53868071536677	1.040018385892933	0.204257648647848	1.840880526188369	-5.362797510494386	0.2235833556496369	-0.4825576938703688	0.6616926915368395	-5.121605982785698	-5.12160598278553	0.8705527533731389	0.01008652301612336	-0.9765115827102898	-0.06681547544415189	4.162996458150646e-08	6.114327665092336e-08	2.26807468363651e-07	2.994537675174113e-07	-3.274834738996964e-08	-5.371935125339029e-08	5.371708464335445e-07
